<svg width="72" height="72" viewBox="0 0 72 72" fill="none" xmlns="http://www.w3.org/2000/svg">
<g filter="url(#filter0_d_1017_68)">
<rect x="4" width="64" height="64" rx="10" fill="#D9D9D9"/>
</g>
<g filter="url(#filter1_d_1017_68)">
<path d="M19 37.9441L30.2674 49L46.475 46.2934L53.7027 27.0675L30.8786 16L29.801 18.6596L32.695 22.6554L30.5067 24.4469L32.695 27.5247L30.8786 31.1914L27.9753 32.5L27.4659 35.5185L25.0348 37.9441L20.8951 36.3516L19 37.9441Z" fill="black" fill-opacity="0.844105" stroke="black" stroke-opacity="0.838942" stroke-width="10"/>
<path d="M19 37.9441L30.2674 49L46.475 46.2934L53.7027 27.0675L30.8786 16L29.801 18.6596L32.695 22.6554L30.5067 24.4469L32.695 27.5247L30.8786 31.1914L27.9753 32.5L27.4659 35.5185L25.0348 37.9441L20.8951 36.3516L19 37.9441Z" stroke="black" stroke-width="5"/>
</g>
<defs>
<filter id="filter0_d_1017_68" x="0" y="0" width="72" height="72" filterUnits="userSpaceOnUse" color-interpolation-filters="sRGB">
<feFlood flood-opacity="0" result="BackgroundImageFix"/>
<feColorMatrix in="SourceAlpha" type="matrix" values="0 0 0 0 0 0 0 0 0 0 0 0 0 0 0 0 0 0 127 0" result="hardAlpha"/>
<feOffset dy="4"/>
<feGaussianBlur stdDeviation="2"/>
<feComposite in2="hardAlpha" operator="out"/>
<feColorMatrix type="matrix" values="0 0 0 0 0 0 0 0 0 0 0 0 0 0 0 0 0 0 0.25 0"/>
<feBlend mode="normal" in2="BackgroundImageFix" result="effect1_dropShadow_1017_68"/>
<feBlend mode="normal" in="SourceGraphic" in2="effect1_dropShadow_1017_68" result="shape"/>
</filter>
<filter id="filter1_d_1017_68" x="7.56897" y="9.16919" width="56.4187" height="53.1816" filterUnits="userSpaceOnUse" color-interpolation-filters="sRGB">
<feFlood flood-opacity="0" result="BackgroundImageFix"/>
<feColorMatrix in="SourceAlpha" type="matrix" values="0 0 0 0 0 0 0 0 0 0 0 0 0 0 0 0 0 0 127 0" result="hardAlpha"/>
<feOffset dy="4"/>
<feGaussianBlur stdDeviation="2"/>
<feComposite in2="hardAlpha" operator="out"/>
<feColorMatrix type="matrix" values="0 0 0 0 0 0 0 0 0 0 0 0 0 0 0 0 0 0 0.25 0"/>
<feBlend mode="normal" in2="BackgroundImageFix" result="effect1_dropShadow_1017_68"/>
<feBlend mode="normal" in="SourceGraphic" in2="effect1_dropShadow_1017_68" result="shape"/>
</filter>
</defs>
</svg>
